<mxfile host="Electron" agent="Mozilla/5.0 (Windows NT 10.0; Win64; x64) AppleWebKit/537.36 (KHTML, like Gecko) draw.io/24.7.17 Chrome/128.0.6613.36 Electron/32.0.1 Safari/537.36" version="24.7.17">
  <diagram name="Page-1" id="qg663SfQHywIOLD2A-Zm">
    <mxGraphModel dx="867" dy="597" grid="1" gridSize="10" guides="1" tooltips="1" connect="1" arrows="1" fold="1" page="1" pageScale="1" pageWidth="1169" pageHeight="827" math="0" shadow="0">
      <root>
        <mxCell id="0" />
        <mxCell id="1" parent="0" />
        <mxCell id="HN-Rwgg1dozNKspNSXEL-11" style="edgeStyle=orthogonalEdgeStyle;rounded=0;orthogonalLoop=1;jettySize=auto;html=1;exitX=0.25;exitY=0;exitDx=0;exitDy=0;entryX=0.25;entryY=1;entryDx=0;entryDy=0;" edge="1" parent="1" source="HN-Rwgg1dozNKspNSXEL-1" target="HN-Rwgg1dozNKspNSXEL-9">
          <mxGeometry relative="1" as="geometry" />
        </mxCell>
        <mxCell id="HN-Rwgg1dozNKspNSXEL-18" style="edgeStyle=orthogonalEdgeStyle;rounded=0;orthogonalLoop=1;jettySize=auto;html=1;exitX=0.75;exitY=1;exitDx=0;exitDy=0;entryX=0.75;entryY=0;entryDx=0;entryDy=0;" edge="1" parent="1" source="HN-Rwgg1dozNKspNSXEL-1" target="HN-Rwgg1dozNKspNSXEL-2">
          <mxGeometry relative="1" as="geometry" />
        </mxCell>
        <mxCell id="HN-Rwgg1dozNKspNSXEL-1" value="View" style="html=1;whiteSpace=wrap;" vertex="1" parent="1">
          <mxGeometry x="520" y="160" width="110" height="50" as="geometry" />
        </mxCell>
        <mxCell id="HN-Rwgg1dozNKspNSXEL-14" style="edgeStyle=orthogonalEdgeStyle;rounded=0;orthogonalLoop=1;jettySize=auto;html=1;exitX=0.75;exitY=1;exitDx=0;exitDy=0;entryX=0.75;entryY=0;entryDx=0;entryDy=0;" edge="1" parent="1" source="HN-Rwgg1dozNKspNSXEL-2" target="HN-Rwgg1dozNKspNSXEL-3">
          <mxGeometry relative="1" as="geometry" />
        </mxCell>
        <mxCell id="HN-Rwgg1dozNKspNSXEL-20" style="edgeStyle=orthogonalEdgeStyle;rounded=0;orthogonalLoop=1;jettySize=auto;html=1;exitX=0.25;exitY=0;exitDx=0;exitDy=0;entryX=0.25;entryY=1;entryDx=0;entryDy=0;" edge="1" parent="1" source="HN-Rwgg1dozNKspNSXEL-2" target="HN-Rwgg1dozNKspNSXEL-1">
          <mxGeometry relative="1" as="geometry" />
        </mxCell>
        <mxCell id="HN-Rwgg1dozNKspNSXEL-29" style="edgeStyle=orthogonalEdgeStyle;rounded=0;orthogonalLoop=1;jettySize=auto;html=1;exitX=1;exitY=0.25;exitDx=0;exitDy=0;entryX=0;entryY=0.25;entryDx=0;entryDy=0;" edge="1" parent="1" source="HN-Rwgg1dozNKspNSXEL-2" target="HN-Rwgg1dozNKspNSXEL-4">
          <mxGeometry relative="1" as="geometry" />
        </mxCell>
        <mxCell id="HN-Rwgg1dozNKspNSXEL-2" value="Controller" style="html=1;whiteSpace=wrap;" vertex="1" parent="1">
          <mxGeometry x="520" y="300" width="110" height="50" as="geometry" />
        </mxCell>
        <mxCell id="HN-Rwgg1dozNKspNSXEL-15" style="edgeStyle=orthogonalEdgeStyle;rounded=0;orthogonalLoop=1;jettySize=auto;html=1;exitX=0.25;exitY=0;exitDx=0;exitDy=0;entryX=0.25;entryY=1;entryDx=0;entryDy=0;" edge="1" parent="1" source="HN-Rwgg1dozNKspNSXEL-3" target="HN-Rwgg1dozNKspNSXEL-2">
          <mxGeometry relative="1" as="geometry" />
        </mxCell>
        <mxCell id="HN-Rwgg1dozNKspNSXEL-22" style="edgeStyle=orthogonalEdgeStyle;rounded=0;orthogonalLoop=1;jettySize=auto;html=1;exitX=1;exitY=0.25;exitDx=0;exitDy=0;entryX=0.25;entryY=1;entryDx=0;entryDy=0;" edge="1" parent="1" source="HN-Rwgg1dozNKspNSXEL-3" target="HN-Rwgg1dozNKspNSXEL-4">
          <mxGeometry relative="1" as="geometry">
            <Array as="points">
              <mxPoint x="760" y="453" />
              <mxPoint x="828" y="453" />
            </Array>
          </mxGeometry>
        </mxCell>
        <mxCell id="HN-Rwgg1dozNKspNSXEL-23" style="edgeStyle=orthogonalEdgeStyle;rounded=0;orthogonalLoop=1;jettySize=auto;html=1;exitX=1;exitY=0.75;exitDx=0;exitDy=0;entryX=0.75;entryY=1;entryDx=0;entryDy=0;startArrow=classic;startFill=1;endArrow=none;endFill=0;" edge="1" parent="1" source="HN-Rwgg1dozNKspNSXEL-3" target="HN-Rwgg1dozNKspNSXEL-4">
          <mxGeometry relative="1" as="geometry" />
        </mxCell>
        <mxCell id="HN-Rwgg1dozNKspNSXEL-3" value="Service" style="html=1;whiteSpace=wrap;" vertex="1" parent="1">
          <mxGeometry x="520" y="440" width="110" height="50" as="geometry" />
        </mxCell>
        <mxCell id="HN-Rwgg1dozNKspNSXEL-28" style="edgeStyle=orthogonalEdgeStyle;rounded=0;orthogonalLoop=1;jettySize=auto;html=1;exitX=0;exitY=0.75;exitDx=0;exitDy=0;entryX=1;entryY=0.75;entryDx=0;entryDy=0;" edge="1" parent="1" source="HN-Rwgg1dozNKspNSXEL-4" target="HN-Rwgg1dozNKspNSXEL-2">
          <mxGeometry relative="1" as="geometry" />
        </mxCell>
        <mxCell id="HN-Rwgg1dozNKspNSXEL-4" value="App" style="html=1;whiteSpace=wrap;" vertex="1" parent="1">
          <mxGeometry x="810" y="300" width="110" height="50" as="geometry" />
        </mxCell>
        <mxCell id="HN-Rwgg1dozNKspNSXEL-6" style="edgeStyle=orthogonalEdgeStyle;rounded=0;orthogonalLoop=1;jettySize=auto;html=1;exitX=0.5;exitY=1;exitDx=0;exitDy=0;entryX=0.5;entryY=0;entryDx=0;entryDy=0;" edge="1" parent="1" source="HN-Rwgg1dozNKspNSXEL-5" target="HN-Rwgg1dozNKspNSXEL-4">
          <mxGeometry relative="1" as="geometry" />
        </mxCell>
        <mxCell id="HN-Rwgg1dozNKspNSXEL-5" value="GameEngine" style="html=1;whiteSpace=wrap;" vertex="1" parent="1">
          <mxGeometry x="810" y="160" width="110" height="50" as="geometry" />
        </mxCell>
        <mxCell id="HN-Rwgg1dozNKspNSXEL-7" value="Update State" style="text;strokeColor=none;align=center;fillColor=none;html=1;verticalAlign=middle;whiteSpace=wrap;rounded=0;" vertex="1" parent="1">
          <mxGeometry x="770" y="240" width="100" height="30" as="geometry" />
        </mxCell>
        <mxCell id="HN-Rwgg1dozNKspNSXEL-8" value="Request Change" style="text;strokeColor=none;align=center;fillColor=none;html=1;verticalAlign=middle;whiteSpace=wrap;rounded=0;" vertex="1" parent="1">
          <mxGeometry x="600" y="110" width="110" height="30" as="geometry" />
        </mxCell>
        <mxCell id="HN-Rwgg1dozNKspNSXEL-10" style="edgeStyle=orthogonalEdgeStyle;rounded=0;orthogonalLoop=1;jettySize=auto;html=1;exitX=0.75;exitY=1;exitDx=0;exitDy=0;entryX=0.75;entryY=0;entryDx=0;entryDy=0;" edge="1" parent="1" source="HN-Rwgg1dozNKspNSXEL-9" target="HN-Rwgg1dozNKspNSXEL-1">
          <mxGeometry relative="1" as="geometry" />
        </mxCell>
        <mxCell id="HN-Rwgg1dozNKspNSXEL-9" value="User" style="html=1;whiteSpace=wrap;rounded=1;" vertex="1" parent="1">
          <mxGeometry x="520" y="40" width="110" height="50" as="geometry" />
        </mxCell>
        <mxCell id="HN-Rwgg1dozNKspNSXEL-12" value="Display Change" style="text;strokeColor=none;align=center;fillColor=none;html=1;verticalAlign=middle;whiteSpace=wrap;rounded=0;" vertex="1" parent="1">
          <mxGeometry x="450" y="120" width="100" height="30" as="geometry" />
        </mxCell>
        <mxCell id="HN-Rwgg1dozNKspNSXEL-16" value="Request Info" style="text;strokeColor=none;align=center;fillColor=none;html=1;verticalAlign=middle;whiteSpace=wrap;rounded=0;" vertex="1" parent="1">
          <mxGeometry x="600" y="384" width="90" height="30" as="geometry" />
        </mxCell>
        <mxCell id="HN-Rwgg1dozNKspNSXEL-17" value="Serve Info" style="text;strokeColor=none;align=center;fillColor=none;html=1;verticalAlign=middle;whiteSpace=wrap;rounded=0;" vertex="1" parent="1">
          <mxGeometry x="480" y="384" width="70" height="30" as="geometry" />
        </mxCell>
        <mxCell id="HN-Rwgg1dozNKspNSXEL-19" value="Apply Change" style="text;strokeColor=none;align=center;fillColor=none;html=1;verticalAlign=middle;whiteSpace=wrap;rounded=0;" vertex="1" parent="1">
          <mxGeometry x="600" y="240" width="100" height="30" as="geometry" />
        </mxCell>
        <mxCell id="HN-Rwgg1dozNKspNSXEL-21" value="Render Change" style="text;strokeColor=none;align=center;fillColor=none;html=1;verticalAlign=middle;whiteSpace=wrap;rounded=0;" vertex="1" parent="1">
          <mxGeometry x="450" y="250" width="100" height="30" as="geometry" />
        </mxCell>
        <mxCell id="HN-Rwgg1dozNKspNSXEL-24" value="Send Data" style="text;strokeColor=none;align=center;fillColor=none;html=1;verticalAlign=middle;whiteSpace=wrap;rounded=0;" vertex="1" parent="1">
          <mxGeometry x="730" y="480" width="60" height="30" as="geometry" />
        </mxCell>
        <mxCell id="HN-Rwgg1dozNKspNSXEL-25" value="Request Data" style="text;strokeColor=none;align=center;fillColor=none;html=1;verticalAlign=middle;whiteSpace=wrap;rounded=0;" vertex="1" parent="1">
          <mxGeometry x="690" y="420" width="90" height="40" as="geometry" />
        </mxCell>
        <mxCell id="HN-Rwgg1dozNKspNSXEL-30" value="Request Data" style="text;strokeColor=none;align=center;fillColor=none;html=1;verticalAlign=middle;whiteSpace=wrap;rounded=0;" vertex="1" parent="1">
          <mxGeometry x="670" y="280" width="90" height="40" as="geometry" />
        </mxCell>
        <mxCell id="HN-Rwgg1dozNKspNSXEL-31" value="Send Data" style="text;strokeColor=none;align=center;fillColor=none;html=1;verticalAlign=middle;whiteSpace=wrap;rounded=0;" vertex="1" parent="1">
          <mxGeometry x="690" y="330" width="60" height="30" as="geometry" />
        </mxCell>
      </root>
    </mxGraphModel>
  </diagram>
</mxfile>
